<?xml version="1.0" encoding="utf-8"?>
<!-- Generator: Adobe Illustrator 27.5.0, SVG Export Plug-In . SVG Version: 6.00 Build 0)  -->
<svg version="1.1" xmlns="http://www.w3.org/2000/svg" xmlns:xlink="http://www.w3.org/1999/xlink" x="0px" y="0px"
	 viewBox="0 0 3710 3710" style="enable-background:new 0 0 3710 3710;" xml:space="preserve">
<g id="Background">
	<g>
		<g>
			<rect style="fill:#44485c;" width="3710" height="3710"/>
		</g>
	</g>
</g>
<g id="Illustration">
	<g>
		<linearGradient id="SVGID_1_" gradientUnits="userSpaceOnUse" x1="3598.592" y1="4076.8057" x2="1110.2819" y2="986.4806">
			<stop  offset="0" style="stop-color:#B37CFF"/>
			<stop  offset="1" style="stop-color:#F895E7"/>
		</linearGradient>
		<path style="opacity:0.3;fill:url(#SVGID_1_);" d="M2914.042,2858.093c-57.155,60.171-111.235,98.974-153.963,129.632
			c-502.254,360.373-1096.554,255.326-1222.859,229.672c-186.514-37.882-547.04-111.107-807.694-417.631
			c-394.348-463.745-332.942-1194.363-27.059-1676.654c55.951-88.219,351.499-577.856,952.2-656.379
			c363.538-47.521,787.306,48.323,1094.187,305.428C3393.024,1311.85,3347.166,2402.114,2914.042,2858.093z"/>
		<g>
			
				<linearGradient id="SVGID_00000058584327375769533910000001631074257726889391_" gradientUnits="userSpaceOnUse" x1="3087.2246" y1="2272.1914" x2="1622.4412" y2="4123.1465" gradientTransform="matrix(1.0029 -0.2247 0.3478 0.8153 -788.0991 90.4877)">
				<stop  offset="0" style="stop-color:#B37CFF"/>
				<stop  offset="1" style="stop-color:#F895E7"/>
			</linearGradient>
			<path style="opacity:0.74;fill:url(#SVGID_00000058584327375769533910000001631074257726889391_);" d="M3239.901,1142.584
				c-1.544-13.457-24.668-17.499-31.16-5.432c-62.757,116.659-239.705,417.821-462.329,558.556
				c-362.484,229.149-644.498,646.685-475.368,909.66C2271.043,2605.368,3408.105,2608.796,3239.901,1142.584z"/>
			<path style="opacity:0.43;fill:#FFFFFF;" d="M3180.89,1313.58c-1.083,4.1-2.4,7.372-3.609,10.987l-3.871,10.538
				c-2.654,6.99-5.285,13.992-8.032,20.945c-5.455,13.92-11.135,27.747-16.866,41.553c-11.459,27.614-23.548,54.957-35.745,82.252
				c-24.732,54.437-50.991,108.177-78.436,161.307c-54.713,106.367-115.739,209.464-181.656,309.324
				c-33.09,49.857-68.144,98.394-104.372,146.023l-27.667,35.347c-4.554,5.936-9.314,11.708-14.087,17.471l-14.269,17.327
				l-14.27,17.324c-4.807,5.734-9.79,11.319-14.677,16.984c-9.852,11.264-19.544,22.669-29.598,33.752
				c-40.24,44.331-82.474,86.81-126.371,127.499c-22.544,19.694-44.702,39.816-68.273,58.276
				c-22.89,19.284-47.359,36.563-71.34,54.406c-0.749,0.558-1.808,0.403-2.366-0.346c-0.554-0.746-0.404-1.797,0.334-2.357
				l0.048-0.035c47.543-36.069,93.253-74.409,136.845-115.084c43.247-41.034,84.802-83.814,124.353-128.413
				c39.291-44.819,77.372-90.709,113.457-138.174c35.977-47.542,70.445-96.207,103.75-145.67
				c33.049-49.635,64.798-100.143,95.229-151.444l22.575-38.624l22.005-38.953c14.49-26.069,28.904-52.187,42.821-78.575
				c27.956-52.708,54.544-106.145,79.98-160.126c12.616-27.037,25.129-54.132,37.014-81.502c5.956-13.678,11.811-27.4,17.534-41.174
				c2.893-6.876,5.667-13.796,8.466-20.706l4.082-10.402c1.257-3.428,2.711-7.102,3.662-10.193l0.139-0.452
				c0.271-0.882,1.207-1.376,2.087-1.105C3180.626,1311.822,3181.117,1312.719,3180.89,1313.58z"/>
		</g>
		<g>
			
				<linearGradient id="SVGID_00000049909625353939439260000005755477238674859142_" gradientUnits="userSpaceOnUse" x1="1958.9578" y1="2206.7161" x2="3207.4426" y2="1029.2815">
				<stop  offset="0" style="stop-color:#A737D5"/>
				<stop  offset="1" style="stop-color:#EF497A"/>
			</linearGradient>
			<path style="fill:url(#SVGID_00000049909625353939439260000005755477238674859142_);" d="M3019.854,567.956
				c-2.788-15.379-24.388-16.802-29.104-1.9c-45.59,144.069-176.969,518.097-366.572,712.625
				c-308.719,316.737-524.48,840.473-342.677,1121.413C2281.501,2400.094,3323.635,2243.646,3019.854,567.956z"/>
			<path style="opacity:0.43;fill:#FFFFFF;" d="M2983.376,774.479c-0.54,4.523-1.379,8.467-2.097,12.632l-2.387,12.31l-5.043,24.547
				c-3.454,16.342-7.082,32.645-10.754,48.939c-7.439,32.564-15.282,65.035-23.423,97.433
				c-16.378,64.771-34.443,129.107-53.507,193.145c-19.005,64.061-39.676,127.626-61.643,190.74l-8.197,23.682l-8.509,23.574
				c-5.74,15.692-11.192,31.487-17.196,47.083l-17.687,46.904l-18.393,46.637c-49.699,124.089-105.92,245.695-170.557,362.807
				c-3.937,7.374-8.111,14.618-12.338,21.831l-12.584,21.694l-12.583,21.691c-4.284,7.177-8.759,14.244-13.129,21.37
				c-8.867,14.175-17.403,28.555-26.54,42.557l-27.651,41.849c-37.912,55.087-78.247,108.538-122.138,158.975
				c-0.613,0.705-1.682,0.78-2.386,0.167c-0.694-0.604-0.776-1.648-0.195-2.352l0.014-0.018
				c42.52-51.396,82.033-105.147,118.89-160.67l27.119-41.986c8.958-14.045,17.318-28.47,26.006-42.683
				c4.28-7.146,8.665-14.23,12.86-21.427l12.315-21.749l12.314-21.747c4.136-7.231,8.22-14.491,12.068-21.883l23.596-44.064
				c7.774-14.737,15.144-29.686,22.736-44.519c3.746-7.442,7.592-14.832,11.257-22.315l10.823-22.533l10.823-22.532
				c3.636-7.496,7.22-15.019,10.619-22.628c28.198-60.411,53.986-121.915,79.174-183.642
				c49.901-123.679,93.442-249.876,132.979-377.281c19.664-63.74,38.078-127.874,55.285-192.331
				c8.643-32.219,16.991-64.52,24.937-96.919c3.924-16.211,7.806-32.433,11.514-48.693l5.422-24.417l2.574-12.229
				c0.778-4.046,1.684-8.268,2.23-12.021l0.054-0.368c0.134-0.918,0.986-1.552,1.903-1.419
				C2982.853,772.75,2983.483,773.579,2983.376,774.479z"/>
		</g>
		<g>
			<g>
				
					<linearGradient id="SVGID_00000127756537482416276230000013123341068088842929_" gradientUnits="userSpaceOnUse" x1="508.9076" y1="3044.1855" x2="4576.8701" y2="-1620.4045">
					<stop  offset="0" style="stop-color:#53D8FF"/>
					<stop  offset="1" style="stop-color:#3840F7"/>
				</linearGradient>
				<path style="fill:url(#SVGID_00000127756537482416276230000013123341068088842929_);" d="M580.72,462.356h2119.535
					c57.792,0,104.345,66.264,103.298,147.033l-29.82,2298.499c-1.404,108.177-65.052,194.457-195.323,193.099l-2052.847-36.009
					c-3.699-0.992-49.178-65.405-49.144-144.489l0.986-2313.804C477.44,526.96,523.685,462.356,580.72,462.356z"/>
				<path style="opacity:0.6;fill:#FFFFFF;" d="M627.464,524.6h2035.251c55.494,0,100.196,62.96,99.19,139.702l-28.634,2183.904
					c-1.348,102.784-62.465,184.762-136.784,183.472l-1971.215-34.214c-54.323-0.943-97.994-62.144-97.961-137.285l0.947-2198.446
					C528.29,585.983,572.696,524.6,627.464,524.6z"/>
			</g>
			<g>
				
					<linearGradient id="SVGID_00000127003291918561788680000001668887853273820082_" gradientUnits="userSpaceOnUse" x1="2056.5361" y1="-571.0234" x2="1406.0195" y2="1421.8253">
					<stop  offset="0" style="stop-color:#53D8FF"/>
					<stop  offset="1" style="stop-color:#3840F7"/>
				</linearGradient>
				<path style="fill:url(#SVGID_00000127003291918561788680000001668887853273820082_);" d="M2758.816,851.764H527.31V543.67
					c0-14.308,11.599-25.907,25.907-25.907h2181.15c13.503,0,24.449,10.946,24.449,24.449V851.764z"/>
				<path style="opacity:0.61;fill:#FFFFFF;" d="M2510.221,709.377l-1157.704-10.979c-27.292-0.259-49.249-18.284-49.254-40.432
					l-0.008-38.599c-0.003-17.088,17.066-30.942,38.124-30.942h1177.14c20.759,0,37.144,14.312,35.619,31.112l-5.56,61.259
					C2547.105,697.049,2530.304,709.568,2510.221,709.377z"/>
				<path style="opacity:0.6;fill:#FFFFFF;" d="M2656.274,1051.369H629.742c-13.445,0-24.344-10.857-24.344-24.251V962.25
					c0-13.477,11.031-24.369,24.56-24.25l2026.532,17.849c13.36,0.118,24.129,10.94,24.129,24.25v47.019
					C2680.618,1040.511,2669.719,1051.369,2656.274,1051.369z"/>
				<path style="fill:#FFFFFF;" d="M1114.047,699.414c-32.713,0-59.325-26.612-59.325-59.326c0-32.711,26.612-59.323,59.325-59.323
					c32.713,0,59.325,26.612,59.325,59.323C1173.372,672.802,1146.76,699.414,1114.047,699.414z M1114.047,587.531
					c-28.981,0-52.558,23.576-52.558,52.557s23.578,52.56,52.558,52.56c28.981,0,52.558-23.579,52.558-52.56
					S1143.028,587.531,1114.047,587.531z"/>
				<path style="fill:#FFFFFF;" d="M920.43,703.95c-32.713,0-59.325-26.612-59.325-59.326c0-32.711,26.612-59.323,59.325-59.323
					c32.713,0,59.325,26.612,59.325,59.323C979.754,677.338,953.142,703.95,920.43,703.95z M920.43,592.067
					c-28.981,0-52.558,23.576-52.558,52.557c0,28.981,23.578,52.56,52.558,52.56c28.981,0,52.558-23.579,52.558-52.56
					C972.988,615.643,949.411,592.067,920.43,592.067z"/>
				<path style="fill:#FFFFFF;" d="M734.381,703.95c-32.713,0-59.325-26.612-59.325-59.326c0-32.711,26.612-59.323,59.325-59.323
					c32.713,0,59.325,26.612,59.325,59.323C793.706,677.338,767.094,703.95,734.381,703.95z M734.381,592.067
					c-28.981,0-52.558,23.576-52.558,52.557c0,28.981,23.578,52.56,52.558,52.56s52.559-23.579,52.559-52.56
					C786.94,615.643,763.362,592.067,734.381,592.067z"/>
				<path style="opacity:0.6;fill:#FFFFFF;" d="M1855.186,1246.956l-379.018-3.15c-11.875-0.099-21.421-9.805-21.322-21.679
					l0.088-10.57c0.096-11.598,9.374-21.029,20.969-21.316l379.123-9.38c12.15-0.301,22.133,9.521,22.032,21.673l-0.192,23.101
					C1876.767,1237.509,1867.061,1247.055,1855.186,1246.956z"/>
				<path style="opacity:0.6;fill:#FFFFFF;" d="M1936.873,1935.67l-558.019-4.638c-18.856-0.157-34.015-15.57-33.858-34.426
					l4.645-558.888c0.154-18.513,15.034-33.531,33.545-33.854l551.039,10.454c23.338,0.443,41.967,19.594,41.766,42.935
					l-4.693,544.559C1971.142,1920.667,1955.729,1935.826,1936.873,1935.67z"/>
				<path style="opacity:0.6;fill:#FFFFFF;" d="M1150.088,1246.956l-379.018-3.15c-11.875-0.099-21.421-9.805-21.322-21.679
					l0.088-10.57c0.096-11.598,9.374-21.029,20.969-21.316l379.123-9.38c12.15-0.301,22.133,9.521,22.032,21.673l-0.192,23.101
					C1171.668,1237.509,1161.962,1247.055,1150.088,1246.956z"/>
				<path style="opacity:0.6;fill:#FFFFFF;" d="M1231.775,1935.67l-558.019-4.638c-18.856-0.157-34.015-15.57-33.858-34.426
					l4.645-558.888c0.154-18.513,15.034-33.531,33.545-33.854l551.039,10.454c23.338,0.443,41.967,19.594,41.766,42.935
					l-4.693,544.559C1266.044,1920.667,1250.631,1935.826,1231.775,1935.67z"/>
				<path style="opacity:0.6;fill:#FFFFFF;" d="M2562.375,1260.175l-379.019-3.15c-11.874-0.099-21.421-9.805-21.322-21.679
					l0.088-10.57c0.096-11.598,9.374-21.029,20.969-21.316l379.123-9.38c12.149-0.301,22.133,9.521,22.032,21.673l-0.192,23.101
					C2583.955,1250.727,2574.249,1260.273,2562.375,1260.175z"/>
				<path style="opacity:0.6;fill:#FFFFFF;" d="M2644.062,1948.888l-558.019-4.638c-18.856-0.157-34.015-15.57-33.858-34.426
					l4.645-558.888c0.154-18.513,15.034-33.531,33.545-33.854l551.039,10.454c23.337,0.443,41.967,19.594,41.766,42.935
					l-4.693,544.559C2678.331,1933.886,2662.918,1949.045,2644.062,1948.888z"/>
				<path style="opacity:0.6;fill:#FFFFFF;" d="M2664.527,2132.829H672.895c-4.964,0-8.989-4.025-8.989-8.989v-80.69
					c0-4.964,4.024-8.989,8.989-8.989h1991.632c4.964,0,8.989,4.025,8.989,8.989v80.69
					C2673.516,2128.805,2669.491,2132.829,2664.527,2132.829z"/>
				<path style="opacity:0.6;fill:#FFFFFF;" d="M2668.911,2288.551H677.279c-4.964,0-8.989-4.024-8.989-8.989v-80.69
					c0-4.964,4.024-8.989,8.989-8.989h1991.632c4.964,0,8.989,4.024,8.989,8.989v80.69
					C2677.9,2284.527,2673.875,2288.551,2668.911,2288.551z"/>
				<path style="opacity:0.6;fill:#FFFFFF;" d="M2654.118,2463.776H662.486c-4.964,0-8.989-4.025-8.989-8.989v-80.69
					c0-4.964,4.024-8.989,8.989-8.989h1991.632c4.964,0,8.989,4.024,8.989,8.989v80.69
					C2663.107,2459.751,2659.082,2463.776,2654.118,2463.776z"/>
				<path style="opacity:0.6;fill:#FFFFFF;" d="M2658.502,2619.498H666.87c-4.964,0-8.989-4.025-8.989-8.989v-80.69
					c0-4.965,4.024-8.989,8.989-8.989h1991.632c4.964,0,8.989,4.024,8.989,8.989v80.69
					C2667.491,2615.473,2663.467,2619.498,2658.502,2619.498z"/>
				<path style="opacity:0.6;fill:#FFFFFF;" d="M2654.118,2783.857H662.486c-4.964,0-8.989-4.024-8.989-8.989v-80.69
					c0-4.965,4.024-8.989,8.989-8.989h1991.632c4.964,0,8.989,4.024,8.989,8.989v80.69
					C2663.107,2779.833,2659.082,2783.857,2654.118,2783.857z"/>
			</g>
		</g>
		<g>
			<g>
				
					<linearGradient id="SVGID_00000003104041225874694650000010873132738076730267_" gradientUnits="userSpaceOnUse" x1="2626.1968" y1="1056.8116" x2="2466.4417" y2="1443.0322" gradientTransform="matrix(0.987 0.1608 -0.1608 0.987 126.9837 357.2448)">
					<stop  offset="0" style="stop-color:#2B3582"/>
					<stop  offset="1" style="stop-color:#150E42"/>
				</linearGradient>
				<path style="fill:url(#SVGID_00000003104041225874694650000010873132738076730267_);" d="M2359.505,1882.337
					c-1.143,2.165-35.697,26.508-35.697,26.508s-24.02,132.251,20.028,197.367c44.048,65.116,194.141-50.823,194.141-50.823
					s84.427-13.201,126.834-179.197c9.729-38.084-51.115-9.146-118.896-2.132C2458.51,1883.106,2359.505,1882.337,2359.505,1882.337
					z"/>
				
					<linearGradient id="SVGID_00000121273239007147904610000011473901665842581634_" gradientUnits="userSpaceOnUse" x1="2449.0063" y1="2225.5276" x2="2521.7583" y2="4426.2563">
					<stop  offset="0" style="stop-color:#FDF53F"/>
					<stop  offset="1" style="stop-color:#D93C65"/>
				</linearGradient>
				<path style="fill:url(#SVGID_00000121273239007147904610000011473901665842581634_);" d="M2209.658,2296.924
					c28.755-19.771,60.547-34.676,94.252-43.849c12.66-3.445,81.016,16.422,123.271,15.451
					c58.003-1.333,117.046-27.73,164.858-15.815c47.493,11.836,86.364,27.294,108.808,43.257
					c67.18,47.781,106.624,136.877,130.661,225.128c-45.514,46.721-102.792,67.486-102.792,67.486l-10.584,428.969l-253.657,129.781
					l-289.519-145.355l10.371-419.205c0,0-91.937-42.815-98.683-58.389C2079.899,2508.808,2128.546,2352.693,2209.658,2296.924z"/>
				
					<linearGradient id="SVGID_00000010283948094324879060000008678631355571165875_" gradientUnits="userSpaceOnUse" x1="2027.9791" y1="2430.6743" x2="2509.999" y2="3595.0342">
					<stop  offset="0" style="stop-color:#F9B776"/>
					<stop  offset="1" style="stop-color:#F47960"/>
				</linearGradient>
				<path style="fill:url(#SVGID_00000010283948094324879060000008678631355571165875_);" d="M2090.927,2522.509
					c0,0-123.2,341.56,157.741,481.94c58.335-7.75,35.898-104.626,35.898-104.626s-122.071-27.014-85.409-311.941
					C2165.404,2560.112,2090.927,2522.509,2090.927,2522.509z"/>
				
					<linearGradient id="SVGID_00000090253276461062814120000015069093866371935904_" gradientUnits="userSpaceOnUse" x1="-7049.5605" y1="2428.1716" x2="-6567.5405" y2="3592.5315" gradientTransform="matrix(-1 0 0 1 -4167.0742 0)">
					<stop  offset="0" style="stop-color:#F9B776"/>
					<stop  offset="1" style="stop-color:#F47960"/>
				</linearGradient>
				<path style="fill:url(#SVGID_00000090253276461062814120000015069093866371935904_);" d="M2825.584,2522.509
					c0,0,84.775,356.543-157.741,481.94c-58.335-7.75-35.898-104.626-35.898-104.626s98.383-48.452,85.409-311.941
					C2751.107,2560.112,2825.584,2522.509,2825.584,2522.509z"/>
				
					<linearGradient id="SVGID_00000060753547437915961410000017463258735755904663_" gradientUnits="userSpaceOnUse" x1="2456.1514" y1="2580.7974" x2="2431.0608" y2="3596.9834">
					<stop  offset="0" style="stop-color:#2B3582"/>
					<stop  offset="1" style="stop-color:#150E42"/>
				</linearGradient>
				<path style="fill:url(#SVGID_00000060753547437915961410000017463258735755904663_);" d="M2722.805,3028.44h-546.138
					c-2.778,0-5.051-2.273-5.051-5.051V2657.84c0-2.778,2.273-5.051,5.051-5.051h546.138c2.778,0,5.051,2.273,5.051,5.051v365.549
					C2727.856,3026.167,2725.583,3028.44,2722.805,3028.44z"/>
				
					<linearGradient id="SVGID_00000039120411035109690680000001631422978035873469_" gradientUnits="userSpaceOnUse" x1="2506.4385" y1="2369.9316" x2="2331.8115" y2="3532.1003">
					<stop  offset="0" style="stop-color:#53D8FF"/>
					<stop  offset="1" style="stop-color:#3840F7"/>
				</linearGradient>
				<path style="fill:url(#SVGID_00000039120411035109690680000001631422978035873469_);" d="M2482.546,2754.52
					c2.949,19.93-7.729,38.02-27.658,40.969c-19.929,2.949-38.476-10.816-41.425-30.746c-2.949-19.929,6.173-39.724,26.103-42.673
					C2459.494,2719.121,2479.597,2734.591,2482.546,2754.52z"/>
				<g>
					
						<linearGradient id="SVGID_00000097487343899847122210000006809513690016163742_" gradientUnits="userSpaceOnUse" x1="2760.2034" y1="3153.6887" x2="3023.6113" y2="3153.6887" gradientTransform="matrix(1 0.0077 -0.0077 1 9.5247 16.8137)">
						<stop  offset="0" style="stop-color:#2B3582"/>
						<stop  offset="1" style="stop-color:#150E42"/>
					</linearGradient>
					<path style="fill:url(#SVGID_00000097487343899847122210000006809513690016163742_);" d="M2971.83,3139.805
						c-63.657-14.612-210.784-6.756-210.784-6.756l-5.984,16.206l-9.911,80.551c0,0,140.113,25.254,209.178,25.193
						c7.047-0.007,13.492-1.064,19.379-2.896c2.106-1.889,4.164-3.849,6.11-5.974
						C3009.119,3214.128,3000.657,3167.119,2971.83,3139.805z"/>
					
						<linearGradient id="SVGID_00000168836009067928869590000010884830217506839196_" gradientUnits="userSpaceOnUse" x1="3387.4307" y1="2845.6384" x2="2771.8586" y2="3370.2134">
						<stop  offset="0" style="stop-color:#53D8FF"/>
						<stop  offset="1" style="stop-color:#3840F7"/>
					</linearGradient>
					<path style="fill:url(#SVGID_00000168836009067928869590000010884830217506839196_);" d="M2978.138,3141.403
						c-1.994-0.561-4.105-1.091-6.308-1.597c28.827,27.313,37.29,74.323,7.988,106.324c-1.946,2.125-4.004,4.085-6.11,5.974
						C3025.519,3235.979,3031.653,3156.457,2978.138,3141.403z"/>
					
						<linearGradient id="SVGID_00000147900291485971906120000001435945319538060694_" gradientUnits="userSpaceOnUse" x1="2919.3027" y1="2716.8235" x2="2641.2593" y2="3469.9346">
						<stop  offset="0" style="stop-color:#F9B776"/>
						<stop  offset="1" style="stop-color:#F47960"/>
					</linearGradient>
					<path style="fill:url(#SVGID_00000147900291485971906120000001435945319538060694_);" d="M2718.771,3128.514l24.914,1.063
						c13.385,0.571,26,7.093,35,18.096s13.628,25.561,12.84,40.391c-0.628,11.824-5.48,22.884-13.481,30.729
						c-8.002,7.845-18.493,11.83-29.152,11.071l-38.119-2.713L2718.771,3128.514z"/>
				</g>
				<g>
					
						<linearGradient id="SVGID_00000099624155141636199100000004071567667940038044_" gradientUnits="userSpaceOnUse" x1="-6983.6113" y1="3102.2439" x2="-6720.0933" y2="3102.2439" gradientTransform="matrix(-0.9998 -0.02 -0.02 0.9998 -4813.9961 -50.8396)">
						<stop  offset="0" style="stop-color:#2B3582"/>
						<stop  offset="1" style="stop-color:#150E42"/>
					</linearGradient>
					<path style="fill:url(#SVGID_00000099624155141636199100000004071567667940038044_);" d="M1881.057,3132.057
						c63.997-12.653,210.872-0.285,210.872-0.285l5.577,16.383l7.897,80.825c0,0-140.689,20.945-209.726,18.765
						c-7.044-0.223-13.46-1.478-19.299-3.49c-2.058-1.953-4.066-3.975-5.959-6.16
						C1841.927,3205.207,1851.559,3158.475,1881.057,3132.057z"/>
					
						<linearGradient id="SVGID_00000163061169609490051910000004935865104323832193_" gradientUnits="userSpaceOnUse" x1="1499.8209" y1="2295.0632" x2="2002.9861" y2="3515.5068">
						<stop  offset="0" style="stop-color:#53D8FF"/>
						<stop  offset="1" style="stop-color:#3840F7"/>
					</linearGradient>
					<path style="fill:url(#SVGID_00000163061169609490051910000004935865104323832193_);" d="M1874.711,3133.46
						c2.008-0.5,4.131-0.965,6.346-1.403c-29.498,26.418-39.13,73.15-10.638,106.038c1.893,2.185,3.901,4.207,5.959,6.16
						C1824.989,3226.545,1820.842,3146.866,1874.711,3133.46z"/>
					
						<linearGradient id="SVGID_00000044874565058548770930000016493924853649062061_" gradientUnits="userSpaceOnUse" x1="2362.2363" y1="2489.8713" x2="2084.0461" y2="3243.3801">
						<stop  offset="0" style="stop-color:#F9B776"/>
						<stop  offset="1" style="stop-color:#F47960"/>
					</linearGradient>
					<path style="fill:url(#SVGID_00000044874565058548770930000016493924853649062061_);" d="M2134.3,3128.535l-24.931,0.298
						c-13.394,0.16-26.167,6.292-35.438,17.015s-14.26,25.132-13.843,39.981c0.333,11.839,4.907,23.043,12.71,31.131
						c7.803,8.088,18.191,12.393,28.864,11.962l38.172-1.542L2134.3,3128.535z"/>
				</g>
				
					<linearGradient id="SVGID_00000158006600822870687690000017960693392932742820_" gradientUnits="userSpaceOnUse" x1="3037.1536" y1="2702.2856" x2="2314.3411" y2="3245.2588">
					<stop  offset="0" style="stop-color:#7C27DD"/>
					<stop  offset="1" style="stop-color:#2B41D9"/>
				</linearGradient>
				<path style="fill:url(#SVGID_00000158006600822870687690000017960693392932742820_);" d="M2989.632,2887.284
					c-28.868-66.442-99.475-77.227-159.571-46.161c-1.046,1.373-381.636,196.431-717.271,281.918
					c9.608,30.803,14.549,63.58,15.627,95.798c0.194,7.177,0.073,14.256-0.347,21.242c257.383-13.22,536.721-99.057,776.756-174.491
					C2979.26,3041.586,3021.629,2960.925,2989.632,2887.284z"/>
				
					<linearGradient id="SVGID_00000065032478737438595460000009846032768247896495_" gradientUnits="userSpaceOnUse" x1="2383.8611" y1="3189.1423" x2="2194.4219" y2="2706.073">
					<stop  offset="0" style="stop-color:#7C27DD"/>
					<stop  offset="1" style="stop-color:#2B41D9"/>
				</linearGradient>
				<path style="fill:url(#SVGID_00000065032478737438595460000009846032768247896495_);" d="M2720.601,3223.887
					c-1.006-37.135,6.213-71.704,21.659-103.708c0.441-1.466,0.969-2.873,1.437-4.322c-19.167-5.936-43.927-13.978-76.453-25.012
					c-238.334-81.565-420.156-163.921-593.685-258.728c-67.413-36.831-144.062-12.147-165.642,67.62
					c-19.265,71.208,24.454,128.145,87.246,153.367c215.86,86.708,532.945,165.908,725.838,178.866
					C2720.857,3229.275,2720.691,3226.576,2720.601,3223.887z"/>
				
					<linearGradient id="SVGID_00000172437535613524521450000018064394608987797125_" gradientUnits="userSpaceOnUse" x1="2451.1233" y1="2526.8125" x2="2444.7097" y2="1968.7935">
					<stop  offset="0" style="stop-color:#F9B776"/>
					<stop  offset="1" style="stop-color:#F47960"/>
				</linearGradient>
				<path style="fill:url(#SVGID_00000172437535613524521450000018064394608987797125_);" d="M2303.91,2253.075
					c0,0,25.632,111.077,150.078,108.771c126.752-2.306,138.051-109.135,138.051-109.135l-82.798-17.717l-6.919-92.256
					l-124.546,9.226l-2.306,87.643L2303.91,2253.075z"/>
				
					<linearGradient id="SVGID_00000170239446053009030190000015722191987803814821_" gradientUnits="userSpaceOnUse" x1="2560.9871" y1="1432.3102" x2="2579.5508" y2="981.1356" gradientTransform="matrix(0.987 0.1608 -0.1608 0.987 126.9837 357.2448)">
					<stop  offset="0" style="stop-color:#F9B776"/>
					<stop  offset="1" style="stop-color:#F47960"/>
				</linearGradient>
				<path style="fill:url(#SVGID_00000170239446053009030190000015722191987803814821_);" d="M2389.737,1870.812
					c0,0-132.618,256.888,24.697,319.212c110.963,43.96,180.535-170.593,159.784-228.705c-32.085-89.852-53.215-79.19-53.215-79.19
					L2389.737,1870.812z"/>
				<path style="fill:#FFFFFF;" d="M2574.218,1961.32c-0.375-1.05-0.697-1.976-0.994-2.847c0.507,4.739,0.78,9.674,0.834,14.764
					c0.202-3.62,0.37-7.245,0.493-10.875C2574.437,1962.018,2574.336,1961.653,2574.218,1961.32z"/>
				<path style="fill:#FFFFFF;" d="M2573.223,1958.473c-0.188-1.757-0.398-3.496-0.649-5.198
					C2579.398,1964.639,2566.273,1938.152,2573.223,1958.473z"/>
				
					<linearGradient id="SVGID_00000106145890004454949390000008195379492794838411_" gradientUnits="userSpaceOnUse" x1="2616.4121" y1="1052.5037" x2="2458.0615" y2="1435.3282" gradientTransform="matrix(0.987 0.1608 -0.1608 0.987 126.9837 357.2448)">
					<stop  offset="0" style="stop-color:#2B3582"/>
					<stop  offset="1" style="stop-color:#150E42"/>
				</linearGradient>
				<path style="fill:url(#SVGID_00000106145890004454949390000008195379492794838411_);" d="M2635.613,1801.842
					c71.057-16.165,21.736,203.646-84.053,167.608c-105.789-36.037-155.075-58.17-171.561-29.12
					c-16.485,29.049-43.956,147.874-53.085,86.264c-8.532-57.584-16.79-163.114,38.795-186.146
					c31.561-13.077,59.314,15.263,81.067,8.169c33.498-10.925,65.752-11.291,85.65,0.181
					C2570.074,1870.503,2590.451,1812.116,2635.613,1801.842z"/>
				
					<linearGradient id="SVGID_00000128445711215538087010000017680668096873463962_" gradientUnits="userSpaceOnUse" x1="2367.1848" y1="2099.9087" x2="2396.2756" y2="1392.8702" gradientTransform="matrix(0.9995 0.0306 -0.0306 0.9995 31.2627 60.8675)">
					<stop  offset="0" style="stop-color:#F9B776"/>
					<stop  offset="1" style="stop-color:#F47960"/>
				</linearGradient>
				<path style="fill:url(#SVGID_00000128445711215538087010000017680668096873463962_);" d="M2368.165,1983.066
					c0,0-22.94-34.639-33.391,0.81c-10.451,35.449-3.818,84.427,17.208,61.658S2368.165,1983.066,2368.165,1983.066z"/>
			</g>
		</g>
		<g>
			
				<linearGradient id="SVGID_00000126310346705420929550000014691982351761593222_" gradientUnits="userSpaceOnUse" x1="1720.8746" y1="884.4451" x2="2182.6421" y2="2462.5754">
				<stop  offset="0" style="stop-color:#2B3582"/>
				<stop  offset="1" style="stop-color:#150E42"/>
			</linearGradient>
			<path style="fill:url(#SVGID_00000126310346705420929550000014691982351761593222_);" d="M2375.365,1702.43H1381.21
				c-43.913,0-79.511-35.598-79.511-79.511v-432.808c0-44.909,37.167-80.906,82.053-79.47l994.155,31.797
				c42.901,1.372,76.969,36.547,76.969,79.47v401.011C2454.876,1666.832,2419.278,1702.43,2375.365,1702.43z"/>
			
				<linearGradient id="SVGID_00000018225121580294001000000002703710572736270743_" gradientUnits="userSpaceOnUse" x1="1873.9768" y1="839.6479" x2="2335.7451" y2="2417.78">
				<stop  offset="0" style="stop-color:#2B3582"/>
				<stop  offset="1" style="stop-color:#150E42"/>
			</linearGradient>
			<polygon style="fill:url(#SVGID_00000018225121580294001000000002703710572736270743_);" points="2033.9,1699.16 
				2166.006,1858.785 2217.047,1699.16 			"/>
			<g>
				<path style="fill:#FFFFFF;" d="M1756.361,1537.931l-222.325-115.153v-36.508l222.325-115.891v59.622l-151.835,74.032
					l151.835,74.526V1537.931z"/>
				<path style="fill:#FFFFFF;" d="M1973.918,1236.899l-114.029,352.364l-59.244-0.516l115.728-354.952L1973.918,1236.899z"/>
				<path style="fill:#FFFFFF;" d="M2015.029,1484.348l137.112-63.299l-137.112-80.475v-57.701l197.48,125.759v33.507
					l-197.48,99.669V1484.348z"/>
			</g>
		</g>
		<g>
			<g>
				<g>
					
						<linearGradient id="SVGID_00000166639846038077882660000011331768439534037642_" gradientUnits="userSpaceOnUse" x1="406.7305" y1="4090.6758" x2="922.5262" y2="2075.4773">
						<stop  offset="0" style="stop-color:#7A2DDB"/>
						<stop  offset="1" style="stop-color:#7077FF"/>
					</linearGradient>
					<path style="fill:url(#SVGID_00000166639846038077882660000011331768439534037642_);" d="M923.429,2268.065
						c-17.305-36.054-29.684-73.795-32.571-114.889c-7.275-103.541,52.915-198.893,97.134-288.04
						c40.64-81.934,70.846-204.023-66.285-193.159c-109.25,8.656-237.688,117.532-252.343,231.063
						c-17.341,134.369,48.073,303.813-29.483,425.869c-108.498,170.751-186.759,131.62-186.759,419.763
						c0,123.121,68.197,191.035,146.311,228.443c123.292,59.042,270.306,35.185,368.538-59.881
						c86.783-83.986,138.383-204.72,120.932-325.933C1071.276,2468.879,975.257,2376.04,923.429,2268.065z"/>
					
						<linearGradient id="SVGID_00000141448177649070700220000006513862099802624145_" gradientUnits="userSpaceOnUse" x1="716.2578" y1="2458.3804" x2="937.5187" y2="2458.3804">
						<stop  offset="0" style="stop-color:#2B3582"/>
						<stop  offset="1" style="stop-color:#150E42"/>
					</linearGradient>
					<path style="fill:url(#SVGID_00000141448177649070700220000006513862099802624145_);" d="M831.764,3195.731
						c-2.273,0-4.341-1.536-4.919-3.842c-67.987-271.377-104.995-517.388-109.997-731.203
						c-4.006-171.262,12.399-322.418,48.757-449.26c62.161-216.868,159.821-286.628,163.949-289.492
						c2.296-1.592,5.456-1.027,7.055,1.272c1.599,2.299,1.032,5.461-1.265,7.063c-0.986,0.687-99.345,71.28-160.368,285.296
						c-56.426,197.904-91.523,562.201,61.713,1173.859c0.681,2.719-0.971,5.474-3.69,6.155
						C832.587,3195.682,832.172,3195.731,831.764,3195.731z"/>
				</g>
				
					<linearGradient id="SVGID_00000023982747887725213930000009479285010088742075_" gradientUnits="userSpaceOnUse" x1="2972.0146" y1="172.6873" x2="1484.6102" y2="1588.1188">
					<stop  offset="0" style="stop-color:#7A2DDB"/>
					<stop  offset="1" style="stop-color:#7077FF"/>
				</linearGradient>
				<path style="fill:url(#SVGID_00000023982747887725213930000009479285010088742075_);" d="M1032.29,1964.303
					c-5.283-1.433-11.086-1.88-17.265-1.169c-34.176,3.929-48.211,39.971-58.252,68.15c-8.599,24.131-18.732,53.422-13.654,79.566
					c5.49,28.266,35.507,51.322,57.288,22.624c24.758-32.621,61.908-82.705,62.133-125.932
					C1062.651,1986.055,1050.587,1969.266,1032.29,1964.303z"/>
			</g>
			<g>
				
					<linearGradient id="SVGID_00000151508486161519256370000001842640135277602227_" gradientUnits="userSpaceOnUse" x1="1545.6078" y1="3241.8716" x2="1661.8896" y2="2350.3765" gradientTransform="matrix(0.9734 0.2289 -0.2289 0.9734 198.9359 -279.6934)">
					<stop  offset="0" style="stop-color:#A737D5"/>
					<stop  offset="1" style="stop-color:#EF497A"/>
				</linearGradient>
				<path style="fill:url(#SVGID_00000151508486161519256370000001842640135277602227_);" d="M1409.613,2728.91
					c15.472-101.927-21.573-218.943-40.062-326.729c-9.776-56.989-14.298-113.546-5.144-170.961
					c9.1-57.084,35.922-118.824,11.192-175.698c-49.833-114.579-168.298-62.436-236.157,23.822
					c-78.745,100.096-100.272,263.662-130.181,389.611c-18.031,75.929-45.192,153.81-54.703,231.183
					c-15.756,128.177,13.225,217.165,74.54,277.261c58.809,57.643,148.377,69.594,220.32,29.528
					C1314.409,2970.734,1384.654,2893.339,1409.613,2728.91z"/>
				
					<linearGradient id="SVGID_00000127730449316325717740000011746484255254268347_" gradientUnits="userSpaceOnUse" x1="1529.0188" y1="2615.5574" x2="1715.9395" y2="2615.5574" gradientTransform="matrix(0.9734 0.2289 -0.2289 0.9734 198.9359 -279.6934)">
					<stop  offset="0" style="stop-color:#2B3582"/>
					<stop  offset="1" style="stop-color:#150E42"/>
				</linearGradient>
				<path style="fill:url(#SVGID_00000127730449316325717740000011746484255254268347_);" d="M1138.598,3202.987
					c-2.432,0-4.581-1.754-4.997-4.232c-0.261-1.546-26.031-157.063-26.706-371.657c-0.623-198.132,20.622-488.681,125.372-747.689
					c1.052-2.6,3.999-3.852,6.608-2.802c2.598,1.051,3.852,4.008,2.802,6.608c-104.108,257.416-125.239,546.485-124.633,743.655
					c0.656,213.809,26.307,368.661,26.564,370.201c0.466,2.765-1.397,5.382-4.161,5.848
					C1139.161,3202.963,1138.878,3202.987,1138.598,3202.987z"/>
			</g>
		</g>
	</g>
</g>
</svg>
